<svg xmlns="http://www.w3.org/2000/svg" viewBox="0 0 1366 768" role="img" aria-labelledby="title desc">
  <title id="title">NPTEL Online Certification - Privacy and Security in Online Social Media</title>
  <desc id="desc">NPTEL certificate style image for Privacy and Security in Online Social Media course</desc>

  <rect width="1366" height="768" fill="#f3f3f3"/>
  <rect x="1" y="1" width="1364" height="766" fill="#fcfcfc" stroke="#cdcdcd" stroke-width="2"/>

  <text x="270" y="95" fill="#b0291f" font-family="Georgia, Times New Roman, serif" font-size="62" font-weight="700">NPTEL ONLINE CERTIFICATION</text>
  <text x="480" y="132" fill="#232323" font-family="Segoe UI, Arial, sans-serif" font-size="42" font-weight="600">(Funded by the MoE, Govt. of India)</text>

  <text x="525" y="220" fill="#232323" font-family="Georgia, Times New Roman, serif" font-size="50" font-style="italic">This certificate is awarded to</text>
  <text x="560" y="278" fill="#111111" font-family="Segoe UI, Arial, sans-serif" font-size="49" font-weight="700">AJIT KUMAR YADAV</text>
  <text x="505" y="336" fill="#232323" font-family="Georgia, Times New Roman, serif" font-size="50" font-style="italic">for successfully completing the course</text>

  <text x="370" y="425" fill="#111111" font-family="Georgia, Times New Roman, serif" font-size="58" font-weight="700">Privacy and Security in Online Social Media</text>

  <text x="440" y="518" fill="#222222" font-family="Georgia, Times New Roman, serif" font-size="52" font-style="italic">with a consolidated score of</text>
  <text x="770" y="520" fill="#111111" font-family="Segoe UI, Arial, sans-serif" font-size="60" font-weight="700">52</text>
  <text x="865" y="520" fill="#222222" font-family="Segoe UI, Arial, sans-serif" font-size="50" font-weight="600">%</text>

  <rect x="308" y="547" width="750" height="56" fill="#ffffff" stroke="#7f7f7f" stroke-width="2"/>
  <line x1="575" y1="547" x2="575" y2="603" stroke="#7f7f7f" stroke-width="2"/>
  <line x1="692" y1="547" x2="692" y2="603" stroke="#7f7f7f" stroke-width="2"/>
  <line x1="914" y1="547" x2="914" y2="603" stroke="#7f7f7f" stroke-width="2"/>
  <text x="318" y="586" fill="#222222" font-family="Georgia, Times New Roman, serif" font-size="49" font-style="italic">Online Assignments</text>
  <text x="620" y="586" fill="#111111" font-family="Segoe UI, Arial, sans-serif" font-size="44" font-weight="700">21.75/25</text>
  <text x="705" y="586" fill="#222222" font-family="Georgia, Times New Roman, serif" font-size="49" font-style="italic">Proctored Exam</text>
  <text x="925" y="586" fill="#111111" font-family="Segoe UI, Arial, sans-serif" font-size="44" font-weight="700">30/75</text>

  <text x="355" y="655" fill="#222222" font-family="Georgia, Times New Roman, serif" font-size="46">Total number of candidates certified in this course:</text>
  <text x="988" y="655" fill="#111111" font-family="Segoe UI, Arial, sans-serif" font-size="50" font-weight="700">10457</text>

  <text x="116" y="735" fill="#1d1d1d" font-family="Segoe UI, Arial, sans-serif" font-size="40" font-weight="700">Prof. Kishore Kothapalli</text>
  <text x="1110" y="735" fill="#1d1d1d" font-family="Segoe UI, Arial, sans-serif" font-size="40" font-weight="700">Prof. Andrew Thangaraj</text>
  <text x="646" y="735" fill="#1d1d1d" font-family="Segoe UI, Arial, sans-serif" font-size="46" font-weight="700">Jan-Apr 2025</text>

  <rect x="0" y="708" width="1366" height="60" fill="#f0d3ac"/>
  <rect x="0" y="768" width="1366" height="0" fill="#f0d3ac"/>
  <rect x="0" y="768" width="1366" height="0" fill="#f0d3ac"/>
  <rect x="0" y="768" width="1366" height="0" fill="#f0d3ac"/>

  <rect x="0" y="768" width="1366" height="0" fill="#f0d3ac"/>
  <rect x="0" y="708" width="1366" height="60" fill="#f0d3ac"/>
  <rect x="0" y="768" width="1366" height="0" fill="#f0d3ac"/>

  <rect x="0" y="708" width="1366" height="60" fill="#efcfaa"/>
  <text x="150" y="748" fill="#212121" font-family="Segoe UI, Arial, sans-serif" font-size="42">International Institute of Information Technology, Hyderabad</text>

  <rect x="0" y="768" width="1366" height="0" fill="#b72718"/>
  <rect x="0" y="768" width="1366" height="0" fill="#b72718"/>
  <rect x="0" y="768" width="1366" height="0" fill="#b72718"/>
  <rect x="0" y="768" width="1366" height="0" fill="#b72718"/>

  <rect x="0" y="768" width="1366" height="0" fill="#b72718"/>
  <rect x="0" y="768" width="1366" height="0" fill="#b72718"/>
  <rect x="0" y="736" width="1366" height="62" fill="#b72718"/>
  <text x="35" y="778" fill="#ffffff" font-family="Segoe UI, Arial, sans-serif" font-size="38">Roll No: NPTEL25CS79S547500570</text>

  <rect x="660" y="742" width="72" height="50" fill="#ffffff"/>
  <rect x="667" y="748" width="58" height="38" fill="#000000"/>
  <text x="455" y="779" fill="#ffffff" font-family="Segoe UI, Arial, sans-serif" font-size="38">To verify the certificate</text>
  <text x="970" y="779" fill="#ffffff" font-family="Segoe UI, Arial, sans-serif" font-size="38">No. of credits recommended: 3 or 4</text>

  <rect x="1202" y="154" width="112" height="220" fill="#ececec" stroke="#c4c4c4"/>
  <text x="1212" y="428" fill="#2f2f2f" font-family="Segoe UI, Arial, sans-serif" font-size="23">Candidate Photo</text>
</svg>
