<svg xmlns="http://www.w3.org/2000/svg" viewBox="0 0 1280 720" role="img" aria-labelledby="title desc">
  <title id="title">Mini Google Drive Project</title>
  <desc id="desc">Colorful cloud drive project cover image</desc>
  <defs>
    <linearGradient id="bg2" x1="0" y1="0" x2="1" y2="1">
      <stop offset="0%" stop-color="#1b114d"/>
      <stop offset="50%" stop-color="#2c5cff"/>
      <stop offset="100%" stop-color="#00b8c8"/>
    </linearGradient>
    <linearGradient id="leftNav" x1="0" y1="0" x2="0" y2="1">
      <stop offset="0%" stop-color="#28206d"/>
      <stop offset="100%" stop-color="#13498a"/>
    </linearGradient>
  </defs>
  <rect width="1280" height="720" fill="url(#bg2)"/>
  <circle cx="140" cy="110" r="110" fill="#ff7a59" opacity="0.27"/>
  <circle cx="1180" cy="130" r="130" fill="#ffe66d" opacity="0.22"/>
  <circle cx="1040" cy="640" r="120" fill="#70e000" opacity="0.2"/>
  <rect x="70" y="140" width="250" height="500" rx="22" fill="url(#leftNav)" stroke="#84b1ff" stroke-width="3"/>
  <rect x="345" y="140" width="865" height="500" rx="22" fill="#f1f7ff" stroke="#9bc9ff" stroke-width="4"/>
  <rect x="395" y="240" width="510" height="240" rx="18" fill="#e4efff" stroke="#b3d4ff" stroke-width="3"/>
  <rect x="395" y="510" width="765" height="90" rx="14" fill="#e8f3ff" stroke="#b3d4ff" stroke-width="3"/>
  <rect x="950" y="245" width="185" height="185" rx="92" fill="#d7ecff"/>
  <rect x="910" y="330" width="260" height="95" rx="47" fill="#d7ecff"/>
  <rect x="430" y="400" width="130" height="56" rx="12" fill="#ff7a59"/>
  <text x="470" y="435" fill="#fff7f4" font-family="Segoe UI, Arial, sans-serif" font-size="24" font-weight="700">Upload</text>
  <text x="70" y="72" fill="#edf6ff" font-family="Segoe UI, Arial, sans-serif" font-size="44" font-weight="700">Mini Google Drive</text>
  <text x="70" y="108" fill="#d2e5ff" font-family="Segoe UI, Arial, sans-serif" font-size="24">Secure Uploads  Cloud Storage  Auth APIs</text>
  <text x="112" y="210" fill="#eff6ff" font-family="Segoe UI, Arial, sans-serif" font-size="28" font-weight="700">Menu</text>
  <text x="112" y="265" fill="#d6e7ff" font-family="Segoe UI, Arial, sans-serif" font-size="24">Dashboard</text>
  <text x="112" y="305" fill="#d6e7ff" font-family="Segoe UI, Arial, sans-serif" font-size="24">Upload</text>
  <text x="112" y="345" fill="#d6e7ff" font-family="Segoe UI, Arial, sans-serif" font-size="24">My Files</text>
  <text x="430" y="332" fill="#3c67a0" font-family="Segoe UI, Arial, sans-serif" font-size="30" font-weight="700">Drop file here to upload</text>
</svg>
